<?xml version="1.0" encoding="UTF-8"?> <svg xmlns="http://www.w3.org/2000/svg" id="Group_2" data-name="Group 2" width="288" height="72" viewBox="0 0 288 72"><rect id="Rectangle_1" data-name="Rectangle 1" width="288" height="72" fill="none"></rect><g id="Group_1" data-name="Group 1" transform="translate(105.51 -2144.325)"><rect id="Rectangle_2" data-name="Rectangle 2" width="1.266" height="71.662" transform="translate(-22.885 2144.325)" fill="#626365"></rect><path id="Path_3" data-name="Path 3" d="M250.6,583.583a68.994,68.994,0,0,0,.307,8.042,6.412,6.412,0,0,0,.856,2.858,2.847,2.847,0,0,0,1.363.737,20.284,20.284,0,0,0,3.646.472c3.335.222,6.689.295,10.03.295a71.392,71.392,0,0,0,11.733-.653,2.913,2.913,0,0,0,2.63-2.611,48.345,48.345,0,0,0,.552-8.437,56.012,56.012,0,0,0-.483-9.2c-.288-1.6-1.447-2.228-2.972-2.462a37.055,37.055,0,0,0-4.3-.375c-3.128-.107-6.284-.1-9.412-.11a62.836,62.836,0,0,0-10.243.553,4.989,4.989,0,0,0-2.273.845,3.86,3.86,0,0,0-.884,1.981,42.885,42.885,0,0,0-.547,8.071m-59.779-.361h15.883a71.924,71.924,0,0,0,7.6-.19,3.772,3.772,0,0,0,2-.783,2.4,2.4,0,0,0,.733-1.271,14.4,14.4,0,0,0,.263-3.264,17.094,17.094,0,0,0-.236-3.481,1.938,1.938,0,0,0-.641-1.112,4.14,4.14,0,0,0-2-.731c-2.4-.295-5.319-.257-7.728-.305H190.823Zm76.319-17.234a83.8,83.8,0,0,1,12.405.572,10.527,10.527,0,0,1,5.76,2.454,7.587,7.587,0,0,1,1.8,2.8,18.284,18.284,0,0,1,.88,4.176,72.9,72.9,0,0,1,.38,8.2,55.881,55.881,0,0,1-.6,9.64,10.227,10.227,0,0,1-2.287,5.226,9.816,9.816,0,0,1-5.482,2.476,71.224,71.224,0,0,1-11.35.6c-2.829,0-5.668-.053-8.5-.127-2.022-.053-4.172-.064-6.184-.249a16.259,16.259,0,0,1-4.27-.879,8.158,8.158,0,0,1-2.981-2.043,9.569,9.569,0,0,1-2.294-5,60.713,60.713,0,0,1-.523-9.9c0-3.484.071-8.476,1.171-11.8,1.081-3.262,3.633-4.935,6.955-5.437a107.322,107.322,0,0,1,15.117-.707m-37.091.051h6.6v35.986h-6.6Zm-39.228,23.224v12.759h-6.6V566.04H206.74c2.262.048,4.525.1,6.786.184,1.136.044,2.393.07,3.519.223a7.8,7.8,0,0,1,3.419,1.326,7,7,0,0,1,2.37,2.732,17.009,17.009,0,0,1,1.2,7.064,20.821,20.821,0,0,1-.627,5.7,7.387,7.387,0,0,1-2.24,3.613,8.476,8.476,0,0,1-3.247,1.788,21.781,21.781,0,0,1-4.819.545c-2.114.064-4.255.051-6.366.051Zm-41.391-17.182v8.29h27.452v6.045H149.432v9.561h28.722v6.045H142.83V566.04H178.1v6.044ZM96.357,589.322h6.459v1.04a5.439,5.439,0,0,0,.014.589l.009.064v.068a14.293,14.293,0,0,0,.342,3.5,1.747,1.747,0,0,0,1.014.908c1.813.786,9.847.736,11.932.736a53.368,53.368,0,0,0,10.652-.721c2-.446,2.44-2.161,2.44-4.018a7.482,7.482,0,0,0-.426-2.842,1.948,1.948,0,0,0-1.189-1.017,11.412,11.412,0,0,0-3.236-.464c-4.883-.163-9.9-.075-14.793-.075a24.679,24.679,0,0,1-7.058-.825,8.806,8.806,0,0,1-4.4-2.829,11.029,11.029,0,0,1-1.836-6.838c0-2.8.684-5.609,2.94-7.449a10.022,10.022,0,0,1,3.073-1.719,22.484,22.484,0,0,1,4.457-.9,90.07,90.07,0,0,1,10.794-.549,51.022,51.022,0,0,1,9.054.6,11.907,11.907,0,0,1,5.327,2.206,7.036,7.036,0,0,1,2.294,3.2,17.99,17.99,0,0,1,.641,5.131l.015,1.061h-6.612v-1.568a7.32,7.32,0,0,0-.391-2.783,4.6,4.6,0,0,0-2.794-1.415,39.087,39.087,0,0,0-7.728-.543,67.274,67.274,0,0,0-9.707.488,8.224,8.224,0,0,0-3.875,1.349,4.326,4.326,0,0,0-.782,2.876,6.894,6.894,0,0,0,.407,2.733,2.744,2.744,0,0,0,1.543.988c2.24.707,6.234.731,8.581.747,3.682.026,7.365.026,11.046.041a19.518,19.518,0,0,1,5.935.751,7.585,7.585,0,0,1,3.679,2.668,10.982,10.982,0,0,1,1.749,6.577,12.46,12.46,0,0,1-1.415,6.36,9.179,9.179,0,0,1-6.307,3.81,41.365,41.365,0,0,1-5.894.651c-3.016.171-6.051.209-9.07.209a69.182,69.182,0,0,1-8.442-.347,12.638,12.638,0,0,1-4.613-1.356,6.955,6.955,0,0,1-3.052-3.2,14.091,14.091,0,0,1-.806-5.342c0-.508.011-1.019.015-1.527Z" transform="translate(-107.236 1587.096)" fill="#20324d"></path><path id="Path_4" data-name="Path 4" d="M249.637,602.173l5.6-8.9h3.655v11.88h-2.377V595.7L250.5,605.15h-1.687l-6.115-9.5v9.5h-2.377V593.269h3.63Zm-34.762-6.708v2.443h8.878v2.2h-8.878v2.852h9.291v2.2H212.5V593.269h11.651v2.2Zm-23.785,0v9.685h-2.378v-9.685H183.2v-2.2h13.362v2.2Zm-59.146,2.88,4.937-5.069h3.328l-7.073,7.131v4.75h-2.377v-4.746l-7.191-7.133h3.274ZM282.3,593.254a29.163,29.163,0,0,0-3.506.179,7.178,7.178,0,0,0-1.467.3,3.335,3.335,0,0,0-1.031.576,3.08,3.08,0,0,0-1,2.5,3.683,3.683,0,0,0,.621,2.287,2.969,2.969,0,0,0,1.483.957,8.126,8.126,0,0,0,2.319.272c1.581,0,3.2-.028,4.78.025a3.576,3.576,0,0,1,1.009.144.509.509,0,0,1,.317.267,2.351,2.351,0,0,1,.125.869c0,.539-.109,1.052-.7,1.179a17.291,17.291,0,0,1-3.419.229,19.735,19.735,0,0,1-3.81-.227.456.456,0,0,1-.263-.224,4.6,4.6,0,0,1-.1-1.094V601.4H275.33v.354a4.634,4.634,0,0,0,.272,1.775,2.358,2.358,0,0,0,1.036,1.093,4.227,4.227,0,0,0,1.533.454,22.621,22.621,0,0,0,2.747.118,26.585,26.585,0,0,0,4.865-.281,3.087,3.087,0,0,0,2.122-1.289,4.138,4.138,0,0,0,.472-2.122,3.668,3.668,0,0,0-.589-2.2,2.577,2.577,0,0,0-1.247-.9,6.382,6.382,0,0,0-1.965-.252L281,598.128a11.411,11.411,0,0,1-2.74-.236.805.805,0,0,1-.43-.263,2.218,2.218,0,0,1-.118-.825,1.318,1.318,0,0,1,.218-.844,2.622,2.622,0,0,1,1.187-.4,21.674,21.674,0,0,1,3.121-.157,12.481,12.481,0,0,1,2.476.173c.236.051.687.173.825.4a2.437,2.437,0,0,1,.108.838v.033h2.372a5.475,5.475,0,0,0-.212-1.567,2.387,2.387,0,0,0-.779-1.089,3.971,3.971,0,0,0-1.778-.738,16.645,16.645,0,0,0-2.947-.2m-120.711,0a29.131,29.131,0,0,0-3.5.179,7.14,7.14,0,0,0-1.467.3,3.318,3.318,0,0,0-1.032.576,3.08,3.08,0,0,0-.995,2.5,3.673,3.673,0,0,0,.621,2.287,2.963,2.963,0,0,0,1.483.957,8.1,8.1,0,0,0,2.318.272c1.581,0,3.2-.028,4.782.025a3.581,3.581,0,0,1,1.009.144.505.505,0,0,1,.316.266,2.321,2.321,0,0,1,.127.869c0,.539-.11,1.052-.7,1.179a17.3,17.3,0,0,1-3.419.229,19.772,19.772,0,0,1-3.811-.228.461.461,0,0,1-.263-.224,4.521,4.521,0,0,1-.1-1.094V601.4h-2.346v.354a4.634,4.634,0,0,0,.272,1.775,2.369,2.369,0,0,0,1.036,1.093,4.225,4.225,0,0,0,1.533.454,22.57,22.57,0,0,0,2.745.118,26.575,26.575,0,0,0,4.865-.281,3.092,3.092,0,0,0,2.122-1.289,4.152,4.152,0,0,0,.472-2.122,3.668,3.668,0,0,0-.589-2.2,2.563,2.563,0,0,0-1.247-.9,6.377,6.377,0,0,0-1.958-.249l-3.572-.015a11.424,11.424,0,0,1-2.742-.236.805.805,0,0,1-.43-.263,2.218,2.218,0,0,1-.118-.825,1.328,1.328,0,0,1,.217-.844,2.635,2.635,0,0,1,1.187-.4,21.68,21.68,0,0,1,3.123-.157,12.472,12.472,0,0,1,2.476.173c.236.051.688.173.825.4a2.44,2.44,0,0,1,.11.838v.033h2.37a5.475,5.475,0,0,0-.211-1.567,2.391,2.391,0,0,0-.78-1.089,3.964,3.964,0,0,0-1.778-.738,16.645,16.645,0,0,0-2.947-.2M98.633,601.4v.093a4.679,4.679,0,0,0,.1,1.094.459.459,0,0,0,.265.224,19.74,19.74,0,0,0,3.81.228,17.287,17.287,0,0,0,3.419-.229c.589-.132.7-.644.7-1.179a2.351,2.351,0,0,0-.125-.869.509.509,0,0,0-.317-.266,3.572,3.572,0,0,0-1.009-.144c-1.577-.053-3.2-.025-4.78-.025a8.128,8.128,0,0,1-2.319-.272,2.97,2.97,0,0,1-1.479-.973,3.683,3.683,0,0,1-.621-2.287,3.08,3.08,0,0,1,.995-2.5,3.335,3.335,0,0,1,1.032-.576,7.182,7.182,0,0,1,1.467-.3,29.176,29.176,0,0,1,3.506-.179,16.645,16.645,0,0,1,2.947.2,3.979,3.979,0,0,1,1.778.738,2.387,2.387,0,0,1,.779,1.089,5.477,5.477,0,0,1,.212,1.567h-2.372V596.8a2.476,2.476,0,0,0-.108-.838,1.411,1.411,0,0,0-.825-.4,12.486,12.486,0,0,0-2.476-.173,21.674,21.674,0,0,0-3.121.157,2.623,2.623,0,0,0-1.187.4,1.318,1.318,0,0,0-.217.844,2.216,2.216,0,0,0,.118.825.806.806,0,0,0,.43.263,11.414,11.414,0,0,0,2.74.236c1.191.009,2.383.009,3.573.015a6.381,6.381,0,0,1,1.958.249,2.57,2.57,0,0,1,1.247.9,3.668,3.668,0,0,1,.589,2.2,4.138,4.138,0,0,1-.472,2.122,3.086,3.086,0,0,1-2.122,1.289,26.585,26.585,0,0,1-4.865.281,22.6,22.6,0,0,1-2.747-.118,4.219,4.219,0,0,1-1.533-.454,2.363,2.363,0,0,1-1.037-1.093,4.664,4.664,0,0,1-.271-1.775v-.354Z" transform="translate(-107.234 1602.047)" fill="#626365"></path><path id="Path_1" data-name="Path 1" d="M47.081,581.129a3.982,3.982,0,0,0,1.425,3.164l31.061,17.853c.777.446,1.408-.246,1.4-1.541a3.988,3.988,0,0,0-1.425-3.165l-31.06-17.854c-.777-.448-1.408.246-1.4,1.541m10.954-12.289h0c-.008-1.3.624-1.988,1.4-1.541l25.544,14.681a3.992,3.992,0,0,1,1.425,3.165c.006,1.3-.624,1.986-1.4,1.541L59.461,572a3.982,3.982,0,0,1-1.425-3.164m21.456,49.513h0c.006,1.3-.626,1.988-1.4,1.541L46.81,601.9a3.985,3.985,0,0,1-1.425-3.164c-.008-1.3.624-1.988,1.4-1.541l31.283,17.99a3.988,3.988,0,0,1,1.428,3.164" transform="translate(-135.127 1587.748)" fill="#626365"></path><path id="Path_2" data-name="Path 2" d="M95.525,616.738a3.994,3.994,0,0,0-1.428-3.165L76.255,603.316l-13.261-7.622c-.779-.448-1.415.246-1.4,1.541a3.992,3.992,0,0,0,1.428,3.161l31.1,17.878c.779.446,1.415-.246,1.4-1.541M45.757,569.551a3.982,3.982,0,0,0,1.425,3.164l31.1,17.878c.777.448,1.409-.246,1.4-1.541a3.991,3.991,0,0,0-1.428-3.164l-31.1-17.878c-.777-.446-1.408.246-1.4,1.541m27.054-3.039h0c-.006-1.3.624-1.986,1.4-1.541L105.231,582.8a3.985,3.985,0,0,1,1.425,3.164c.008,1.3-.624,1.988-1.4,1.541L74.235,569.677a3.993,3.993,0,0,1-1.425-3.165m-2.465,54.347h0c.006,1.3-.624,1.988-1.4,1.541L37.917,604.568a3.988,3.988,0,0,1-1.425-3.165c-.008-1.3.624-1.987,1.4-1.539l31.03,17.827a3.984,3.984,0,0,1,1.425,3.164" transform="translate(-140 1586.473)" fill="#20324d"></path></g></svg> 